<svg width="32" height="32" viewBox="0 0 32 32" fill="none" xmlns="http://www.w3.org/2000/svg">
<path d="M26.9995 8.00128H4.99951C3.34266 8.00128 1.99951 9.34443 1.99951 11.0013V25.0013C1.99951 26.6581 3.34266 28.0013 4.99951 28.0013H26.9995C28.6564 28.0013 29.9995 26.6581 29.9995 25.0013V11.0013C29.9995 9.34443 28.6564 8.00128 26.9995 8.00128Z" stroke="#0ACFCF" stroke-linejoin="round"/>
<path d="M9.00073 8.00085V6.00085C9.00073 5.47042 9.21145 4.96171 9.58652 4.58664C9.96159 4.21157 10.4703 4.00085 11.0007 4.00085H21.0007C21.5312 4.00085 22.0399 4.21157 22.4149 4.58664C22.79 4.96171 23.0007 5.47042 23.0007 6.00085V8.00085" stroke="#0ACFCF" stroke-linecap="round" stroke-linejoin="round"/>
<path d="M29.9995 15.0005H1.99951" stroke="#0ACFCF" stroke-linecap="round" stroke-linejoin="round"/>
</svg>
