<svg width="32" height="32" viewBox="0 0 32 32" fill="none" xmlns="http://www.w3.org/2000/svg">
<path d="M26.0002 13.8279V25.9998C26.0002 26.7955 25.6842 27.5585 25.1216 28.1211C24.559 28.6837 23.7959 28.9998 23.0002 28.9998H9.00024C8.20459 28.9998 7.44153 28.6837 6.87892 28.1211C6.31631 27.5585 6.00024 26.7955 6.00024 25.9998V5.99982C6.00024 5.20417 6.31631 4.44111 6.87892 3.8785C7.44153 3.31589 8.20459 2.99982 9.00024 2.99982H15.1721C15.7024 2.9999 16.2109 3.21054 16.5859 3.58544L25.4146 12.4142C25.7895 12.7892 26.0002 13.2977 26.0002 13.8279Z" stroke="#21C978" stroke-width="1.00189" stroke-linejoin="round"/>
<path d="M16.0002 3.49954V11.0006C16.0002 11.5311 16.211 12.0399 16.5861 12.415C16.9612 12.7902 17.47 13.0009 18.0005 13.0009H25.5016" stroke="#21C978" stroke-width="1.00189" stroke-linecap="round" stroke-linejoin="round"/>
<path d="M9.5 15.5H18M9.5 20H21.5M9.5 24H21.5" stroke="#21C978"/>
</svg>
