<svg width="22" height="22" viewBox="0 0 22 22" fill="none" xmlns="http://www.w3.org/2000/svg">
<path d="M3.02897 11.9964H9.00723C9.27149 11.9964 9.52492 11.8914 9.71177 11.7046C9.89863 11.5177 10.0036 11.2643 10.0036 11V3.029C10.0036 2.76474 9.89863 2.51131 9.71177 2.32446C9.52492 2.1376 9.27149 2.03262 9.00723 2.03262H3.02897C2.76471 2.03262 2.51128 2.1376 2.32442 2.32446C2.13757 2.51131 2.03259 2.76474 2.03259 3.029V11C2.03259 11.2643 2.13757 11.5177 2.32442 11.7046C2.51128 11.8914 2.76471 11.9964 3.02897 11.9964ZM2.03259 18.971C2.03259 19.2353 2.13757 19.4887 2.32442 19.6756C2.51128 19.8624 2.76471 19.9674 3.02897 19.9674H9.00723C9.27149 19.9674 9.52492 19.8624 9.71177 19.6756C9.89863 19.4887 10.0036 19.2353 10.0036 18.971V14.9855C10.0036 14.7213 9.89863 14.4678 9.71177 14.281C9.52492 14.0941 9.27149 13.9891 9.00723 13.9891H3.02897C2.76471 13.9891 2.51128 14.0941 2.32442 14.281C2.13757 14.4678 2.03259 14.7213 2.03259 14.9855V18.971ZM11.9964 18.971C11.9964 19.2353 12.1013 19.4887 12.2882 19.6756C12.475 19.8624 12.7285 19.9674 12.9927 19.9674H18.971C19.2353 19.9674 19.4887 19.8624 19.6755 19.6756C19.8624 19.4887 19.9674 19.2353 19.9674 18.971V11.9964C19.9674 11.7321 19.8624 11.4787 19.6755 11.2918C19.4887 11.105 19.2353 11 18.971 11H12.9927C12.7285 11 12.475 11.105 12.2882 11.2918C12.1013 11.4787 11.9964 11.7321 11.9964 11.9964V18.971ZM12.9927 9.00726H18.971C19.2353 9.00726 19.4887 8.90228 19.6755 8.71543C19.8624 8.52857 19.9674 8.27514 19.9674 8.01088V3.029C19.9674 2.76474 19.8624 2.51131 19.6755 2.32446C19.4887 2.1376 19.2353 2.03262 18.971 2.03262H12.9927C12.7285 2.03262 12.475 2.1376 12.2882 2.32446C12.1013 2.51131 11.9964 2.76474 11.9964 3.029V8.01088C11.9964 8.27514 12.1013 8.52857 12.2882 8.71543C12.475 8.90228 12.7285 9.00726 12.9927 9.00726Z" fill="white"/>
</svg>
