<svg width="22" height="22" viewBox="0 0 22 22" fill="none" xmlns="http://www.w3.org/2000/svg">
<path d="M11.0007 2.74968C6.44605 2.74968 2.75073 6.44499 2.75073 10.9997C2.75073 15.5544 6.44605 19.2497 11.0007 19.2497C15.5554 19.2497 19.2507 15.5544 19.2507 10.9997C19.2507 6.44499 15.5554 2.74968 11.0007 2.74968ZM10.7429 15.8122C10.573 15.8122 10.4068 15.7618 10.2655 15.6673C10.1242 15.5729 10.014 15.4387 9.94896 15.2817C9.88392 15.1246 9.8669 14.9519 9.90006 14.7852C9.93322 14.6184 10.0151 14.4653 10.1353 14.3451C10.2554 14.2249 10.4086 14.1431 10.5753 14.1099C10.742 14.0768 10.9148 14.0938 11.0718 14.1588C11.2288 14.2239 11.363 14.334 11.4575 14.4754C11.5519 14.6167 11.6023 14.7828 11.6023 14.9528C11.6023 15.1807 11.5118 15.3993 11.3506 15.5605C11.1894 15.7216 10.9708 15.8122 10.7429 15.8122ZM12.1798 11.4294C11.4833 11.8969 11.3875 12.3253 11.3875 12.7184C11.3875 12.878 11.3241 13.031 11.2113 13.1438C11.0984 13.2566 10.9454 13.32 10.7859 13.32C10.6263 13.32 10.4733 13.2566 10.3605 13.1438C10.2477 13.031 10.1843 12.878 10.1843 12.7184C10.1843 11.777 10.6175 11.0285 11.5086 10.4299C12.3371 9.8739 12.8054 9.52156 12.8054 8.74683C12.8054 8.22003 12.5046 7.81999 11.882 7.52394C11.7355 7.45433 11.4094 7.38644 11.008 7.39116C10.5044 7.39761 10.1134 7.51792 9.81222 7.76027C9.24417 8.21745 9.19605 8.71503 9.19605 8.72234C9.19224 8.80133 9.1729 8.87881 9.13915 8.95034C9.1054 9.02186 9.0579 9.08604 8.99934 9.13921C8.94079 9.19238 8.87234 9.23349 8.79789 9.2602C8.72345 9.28692 8.64448 9.2987 8.56548 9.29489C8.48648 9.29109 8.40901 9.27175 8.33748 9.238C8.26595 9.20425 8.20177 9.15675 8.14861 9.09819C8.09544 9.03964 8.05432 8.97119 8.02761 8.89674C8.0009 8.8223 7.98911 8.74333 7.99292 8.66433C7.99765 8.55991 8.07026 7.61933 9.05726 6.82527C9.56901 6.41363 10.22 6.19964 10.9909 6.19019C11.5366 6.18374 12.0492 6.27613 12.3968 6.44027C13.4371 6.93226 14.0085 7.75253 14.0085 8.74683C14.0085 10.2005 13.037 10.8532 12.1798 11.4294Z" fill="white"/>
</svg>
