<svg width="22" height="22" viewBox="0 0 22 22" fill="none" xmlns="http://www.w3.org/2000/svg">
<path d="M18.2224 2.0627H3.78177C3.14367 2.06351 2.53189 2.36344 2.08068 2.89669C1.62947 3.42993 1.37568 4.15294 1.375 4.90707V17.0972C1.37568 17.8514 1.62947 18.5744 2.08068 19.1076C2.53189 19.6409 3.14367 19.9408 3.78177 19.9416H18.2224C18.8605 19.9408 19.4723 19.6409 19.9235 19.1076C20.3747 18.5744 20.6285 17.8514 20.6292 17.0972V4.90707C20.6285 4.15294 20.3747 3.42993 19.9235 2.89669C19.4723 2.36344 18.8605 2.06351 18.2224 2.0627ZM17.613 6.76759L11.4241 12.4563C11.3035 12.5672 11.155 12.6274 11.0021 12.6274C10.8492 12.6274 10.7007 12.5672 10.5801 12.4563L4.3912 6.76759C4.31849 6.7027 4.25742 6.62137 4.21153 6.52834C4.16564 6.43531 4.13585 6.33242 4.1239 6.22567C4.11195 6.11891 4.11807 6.01042 4.1419 5.90648C4.16574 5.80255 4.20681 5.70525 4.26274 5.62023C4.31867 5.53522 4.38834 5.46419 4.4677 5.41128C4.54705 5.35836 4.63452 5.32461 4.72501 5.31199C4.8155 5.29937 4.90721 5.30812 4.99481 5.33775C5.08241 5.36738 5.16415 5.41729 5.23529 5.48458L11.0021 10.7853L16.7689 5.48458C16.9131 5.35588 17.0944 5.29944 17.2735 5.32745C17.4526 5.35546 17.6153 5.46568 17.7262 5.63427C17.8371 5.80287 17.8874 6.01628 17.8662 6.22836C17.845 6.44044 17.7541 6.63415 17.613 6.76759Z" fill="white"/>
</svg>
