<svg width="28" height="28" viewBox="0 0 28 28" fill="none" xmlns="http://www.w3.org/2000/svg">
<path d="M23.3883 19.2177C21.9839 17.4989 20.9924 16.6239 20.9924 11.8852C20.9924 7.54578 18.7765 5.99976 16.9527 5.2489C16.7104 5.14937 16.4824 4.92078 16.4085 4.67195C16.0886 3.58312 15.1917 2.6239 13.9995 2.6239C12.8074 2.6239 11.9099 3.58367 11.5933 4.67304C11.5195 4.92461 11.2914 5.14937 11.0492 5.2489C9.22313 6.00086 7.00938 7.5414 7.00938 11.8852C7.00665 16.6239 6.01516 17.4989 4.61079 19.2177C4.02891 19.9298 4.5386 20.9989 5.55634 20.9989H22.4482C23.4605 20.9989 23.9669 19.9265 23.3883 19.2177Z" stroke="black" stroke-width="1.00189" stroke-linecap="round" stroke-linejoin="round"/>
<path d="M17.5005 20.9989V21.874C17.5005 22.8024 17.1317 23.6928 16.4752 24.3492C15.8188 25.0057 14.9284 25.3745 14 25.3745C13.0716 25.3745 12.1813 25.0057 11.5248 24.3492C10.8683 23.6928 10.4995 22.8024 10.4995 21.874V20.9989" stroke="black" stroke-width="1.00189" stroke-linecap="round" stroke-linejoin="round"/>
</svg>
