<svg width="22" height="22" viewBox="0 0 22 22" fill="none" xmlns="http://www.w3.org/2000/svg">
<path d="M1.71586 6.41336L10.1979 10.5091C10.4188 10.6144 10.7135 10.6694 11.0053 10.6694C11.297 10.6694 11.5918 10.6144 11.8122 10.5091L20.2943 6.41336C20.7403 6.19852 20.7403 5.84703 20.2943 5.63133L11.8122 1.53555C11.5918 1.43027 11.2966 1.37527 11.0053 1.37527C10.7139 1.37527 10.4188 1.43027 10.1979 1.53555L1.71586 5.63133C1.26984 5.84703 1.26984 6.19766 1.71586 6.41336Z" fill="white"/>
<path d="M20.2938 10.6099C20.2938 10.6099 18.7448 9.86315 18.5394 9.7626C18.334 9.66206 18.2786 9.66764 18.0629 9.76776C17.8472 9.86788 11.8066 12.7855 11.8066 12.7855C11.552 12.8954 11.277 12.9502 10.9997 12.9462C10.7088 12.9462 10.4132 12.8907 10.1927 12.7855C10.1927 12.7855 4.31247 9.94952 4.03661 9.81288C3.73797 9.66893 3.65204 9.66893 3.38004 9.79784L1.70426 10.6048C1.25825 10.8196 1.25825 11.1716 1.70426 11.3868L10.1876 15.4826C10.408 15.5879 10.7032 15.6429 10.9945 15.6429C11.2859 15.6429 11.5811 15.5879 11.8019 15.4826L20.284 11.3877C20.7399 11.1763 20.7398 10.8257 20.2938 10.6099Z" fill="white"/>
<path d="M20.2938 15.5872C20.2938 15.5872 18.7448 14.8404 18.5394 14.7385C18.334 14.6367 18.2786 14.6436 18.0629 14.7437C17.8472 14.8438 11.8118 17.7678 11.8118 17.7678C11.5571 17.8776 11.2821 17.9322 11.0048 17.9281C10.7139 17.9281 10.4183 17.8731 10.1975 17.7678C10.1975 17.7678 4.31718 14.9319 4.04175 14.7953C3.74097 14.6496 3.65503 14.6496 3.38476 14.7802L1.70898 15.5872C1.26253 15.802 1.26253 16.1535 1.70898 16.3692L10.191 20.465C10.4114 20.575 10.7066 20.6253 10.998 20.6253C11.2893 20.6253 11.5845 20.5703 11.8049 20.465L20.2887 16.3713C20.7398 16.1535 20.7398 15.8029 20.2938 15.5872Z" fill="white"/>
</svg>
