<svg width="22" height="22" viewBox="0 0 22 22" fill="none" xmlns="http://www.w3.org/2000/svg">
<path d="M15.8126 1.37483H5.22507C4.42306 1.37563 3.65415 1.66562 3.08704 2.18117C2.51993 2.69672 2.20095 3.39573 2.20007 4.12483V17.8748C2.20095 18.6039 2.51993 19.3029 3.08704 19.8185C3.65415 20.3341 4.42306 20.624 5.22507 20.6248H15.8126C16.6146 20.624 17.3835 20.3341 17.9506 19.8185C18.5177 19.3029 18.8367 18.6039 18.8376 17.8748V4.12483C18.8367 3.39573 18.5177 2.69672 17.9506 2.18117C17.3835 1.66562 16.6146 1.37563 15.8126 1.37483ZM10.5188 13.0623H6.73757C6.537 13.0623 6.34465 12.9899 6.20283 12.861C6.061 12.732 5.98132 12.5572 5.98132 12.3748C5.98132 12.1925 6.061 12.0176 6.20283 11.8887C6.34465 11.7598 6.537 11.6873 6.73757 11.6873H10.5188C10.7194 11.6873 10.9118 11.7598 11.0536 11.8887C11.1954 12.0176 11.2751 12.1925 11.2751 12.3748C11.2751 12.5572 11.1954 12.732 11.0536 12.861C10.9118 12.9899 10.7194 13.0623 10.5188 13.0623ZM14.3001 9.62483H6.73757C6.537 9.62483 6.34465 9.5524 6.20283 9.42347C6.061 9.29454 5.98132 9.11967 5.98132 8.93733C5.98132 8.755 6.061 8.58013 6.20283 8.4512C6.34465 8.32227 6.537 8.24983 6.73757 8.24983H14.3001C14.5006 8.24983 14.693 8.32227 14.8348 8.4512C14.9767 8.58013 15.0563 8.755 15.0563 8.93733C15.0563 9.11967 14.9767 9.29454 14.8348 9.42347C14.693 9.5524 14.5006 9.62483 14.3001 9.62483ZM14.3001 6.18733H6.73757C6.537 6.18733 6.34465 6.1149 6.20283 5.98597C6.061 5.85704 5.98132 5.68217 5.98132 5.49983C5.98132 5.3175 6.061 5.14263 6.20283 5.0137C6.34465 4.88477 6.537 4.81233 6.73757 4.81233H14.3001C14.5006 4.81233 14.693 4.88477 14.8348 5.0137C14.9767 5.14263 15.0563 5.3175 15.0563 5.49983C15.0563 5.68217 14.9767 5.85704 14.8348 5.98597C14.693 6.1149 14.5006 6.18733 14.3001 6.18733Z" fill="white"/>
</svg>
