<svg width="22" height="22" viewBox="0 0 22 22" fill="none" xmlns="http://www.w3.org/2000/svg">
<path d="M11.0001 13.0653C12.14 13.0653 13.0641 12.1412 13.0641 11.0013C13.0641 9.86137 12.14 8.93728 11.0001 8.93728C9.86019 8.93728 8.9361 9.86137 8.9361 11.0013C8.9361 12.1412 9.86019 13.0653 11.0001 13.0653Z" fill="white"/>
<path d="M20.2117 12.8915L20.1915 12.8752L18.8354 11.8117C18.7495 11.7437 18.681 11.6564 18.6354 11.5568C18.5898 11.4573 18.5685 11.3483 18.5733 11.2389V10.7422C18.569 10.6335 18.5905 10.5253 18.6362 10.4266C18.6818 10.3278 18.7502 10.2413 18.8358 10.1741L20.1915 9.11024L20.2117 9.09391C20.4207 8.91974 20.561 8.67688 20.6075 8.40876C20.6539 8.14064 20.6035 7.86474 20.4652 7.63039L18.63 4.455C18.6279 4.452 18.626 4.44884 18.6244 4.44555C18.4853 4.21445 18.2697 4.03934 18.015 3.95065C17.7603 3.86195 17.4826 3.86526 17.2301 3.96L17.215 3.96559L15.6209 4.60711C15.5203 4.64779 15.4114 4.66398 15.3033 4.65434C15.1952 4.64471 15.091 4.60952 14.9991 4.55168C14.8582 4.46288 14.715 4.37895 14.5694 4.29988C14.4751 4.24872 14.3941 4.1761 14.333 4.08788C14.2718 3.99965 14.2323 3.8983 14.2175 3.79199L13.9773 2.09086L13.9722 2.05992C13.9199 1.79644 13.7785 1.55898 13.5718 1.38746C13.365 1.21594 13.1055 1.1208 12.8369 1.11805H9.16225C8.88985 1.11892 8.6265 1.21589 8.4186 1.39189C8.21069 1.56788 8.07156 1.8116 8.02572 2.08012L8.02186 2.10418L7.78252 3.80875C7.76784 3.91476 7.72861 4.01587 7.66797 4.10404C7.60732 4.19222 7.52693 4.26501 7.43319 4.31664C7.28623 4.3957 7.14272 4.47949 7.0035 4.56672C6.91183 4.6242 6.80783 4.65912 6.70005 4.66861C6.59226 4.6781 6.48376 4.66188 6.38346 4.62129L4.78803 3.97676L4.77299 3.97074C4.5201 3.8759 4.24197 3.87271 3.98697 3.96174C3.73198 4.05077 3.51627 4.22637 3.37737 4.45801L3.37178 4.46746L1.53401 7.645C1.39549 7.87958 1.34493 8.15579 1.39138 8.42423C1.43782 8.69267 1.57824 8.93583 1.78752 9.11024L1.80772 9.12656L3.16381 10.19C3.24969 10.258 3.31823 10.3453 3.36379 10.4449C3.40935 10.5445 3.43065 10.6534 3.42592 10.7628V11.2595C3.43022 11.3682 3.40867 11.4764 3.36303 11.5752C3.31739 11.6739 3.24897 11.7604 3.16338 11.8276L1.80772 12.8915L1.78752 12.9078C1.57845 13.082 1.43814 13.3248 1.3917 13.593C1.34525 13.8611 1.3957 14.137 1.53401 14.3713L3.3692 17.5467C3.37132 17.5497 3.37318 17.5529 3.37479 17.5562C3.51385 17.7873 3.72945 17.9624 3.98416 18.0511C4.23887 18.1398 4.5166 18.1365 4.76912 18.0417L4.78416 18.0361L6.37701 17.3946C6.47763 17.3539 6.58647 17.3377 6.69458 17.3474C6.80268 17.357 6.90694 17.3922 6.99877 17.45C7.13971 17.5391 7.28294 17.6231 7.42846 17.7018C7.52281 17.753 7.60382 17.8256 7.66494 17.9138C7.72607 18.0021 7.76561 18.1034 7.78037 18.2097L8.01928 19.9109L8.02444 19.9418C8.07682 20.2057 8.21859 20.4435 8.42585 20.6151C8.63311 20.7866 8.89319 20.8815 9.16225 20.8837H12.8369C13.1093 20.8828 13.3727 20.7858 13.5806 20.6098C13.7885 20.4338 13.9276 20.1901 13.9735 19.9216L13.9773 19.8975L14.2167 18.193C14.2316 18.0868 14.2711 17.9855 14.3322 17.8973C14.3932 17.8091 14.474 17.7365 14.5681 17.6851C14.7151 17.606 14.8586 17.5222 14.9978 17.435C15.0895 17.3775 15.1935 17.3426 15.3013 17.3331C15.4091 17.3236 15.5176 17.3398 15.6179 17.3804L17.2133 18.0228L17.2283 18.0288C17.4812 18.1238 17.7594 18.1271 18.0144 18.0381C18.2695 17.949 18.4852 17.7733 18.624 17.5416C18.6257 17.5383 18.6275 17.5352 18.6296 17.5321L20.4647 14.3572C20.6035 14.1226 20.6543 13.8463 20.6079 13.5778C20.5615 13.3092 20.4211 13.0659 20.2117 12.8915ZM14.4332 11.1624C14.4019 11.8278 14.178 12.4698 13.7886 13.0103C13.3992 13.5508 12.8612 13.9665 12.2399 14.2069C11.6187 14.4472 10.9409 14.5019 10.2892 14.3643C9.63742 14.2266 9.0397 13.9025 8.5687 13.4315C8.09769 12.9604 7.7737 12.3627 7.63613 11.7109C7.49855 11.0591 7.55332 10.3814 7.79377 9.76017C8.03421 9.13893 8.44998 8.60095 8.99051 8.21163C9.53105 7.82232 10.1731 7.59844 10.8385 7.56723C11.3162 7.5462 11.793 7.6248 12.2387 7.79804C12.6844 7.97128 13.0892 8.23536 13.4273 8.5735C13.7654 8.91164 14.0294 9.31643 14.2026 9.76214C14.3758 10.2078 14.4543 10.6847 14.4332 11.1624Z" fill="white"/>
</svg>
