<svg width="28" height="28" viewBox="0 0 28 28" fill="none" xmlns="http://www.w3.org/2000/svg">
<path d="M12.0909 3.50186C10.3918 3.50186 8.7308 4.00571 7.31804 4.94968C5.90528 5.89366 4.80417 7.23537 4.15394 8.80514C3.50372 10.3749 3.33359 12.1022 3.66507 13.7687C3.99655 15.4352 4.81476 16.9659 6.01621 18.1674C7.21766 19.3688 8.74841 20.187 10.4149 20.5185C12.0813 20.85 13.8087 20.6799 15.3784 20.0296C16.9482 19.3794 18.2899 18.2783 19.2339 16.8655C20.1779 15.4528 20.6817 13.7918 20.6817 12.0927C20.6816 9.81433 19.7764 7.62929 18.1654 6.01823C16.5543 4.40716 14.3693 3.50201 12.0909 3.50186V3.50186Z" stroke="black" stroke-width="1.00189" stroke-miterlimit="10"/>
<path d="M18.4995 18.5021L24.5017 24.5043" stroke="black" stroke-width="1.00189" stroke-miterlimit="10" stroke-linecap="round"/>
</svg>
