<svg width="24" height="24" viewBox="0 0 24 24" fill="none" xmlns="http://www.w3.org/2000/svg">
<path d="M5.24487 6.50232L6.18237 19.6841C6.2269 20.4458 6.85737 21.0023 7.68237 21.0023H16.3074C17.1357 21.0023 17.7544 20.4458 17.8074 19.6841L18.7449 6.50232" stroke="#909CA8" stroke-width="1.00189" stroke-linecap="round" stroke-linejoin="round"/>
<path d="M3.74536 6.50269H20.2454" stroke="#909CA8" stroke-width="1.00189" stroke-miterlimit="10" stroke-linecap="round"/>
<path d="M8.99463 6.50067V4.62541C8.9942 4.47753 9.02301 4.33102 9.0794 4.19432C9.13579 4.05761 9.21865 3.9334 9.32322 3.82883C9.42779 3.72427 9.552 3.64141 9.6887 3.58501C9.82541 3.52862 9.97191 3.49982 10.1198 3.50025H13.8703C14.0182 3.49982 14.1647 3.52862 14.3014 3.58501C14.4381 3.64141 14.5623 3.72427 14.6669 3.82883C14.7715 3.9334 14.8543 4.05761 14.9107 4.19432C14.9671 4.33102 14.9959 4.47753 14.9955 4.62541V6.50067" stroke="#909CA8" stroke-width="1.00189" stroke-linecap="round" stroke-linejoin="round"/>
<path d="M11.9954 9.5V19" stroke="#909CA8" stroke-width="1.00189" stroke-linecap="round" stroke-linejoin="round"/>
<path d="M8.61987 9.5L8.99487 19" stroke="#909CA8" stroke-width="1.00189" stroke-linecap="round" stroke-linejoin="round"/>
<path d="M15.3699 9.5L14.9949 19" stroke="#909CA8" stroke-width="1.00189" stroke-linecap="round" stroke-linejoin="round"/>
</svg>
