<svg width="151" height="110" viewBox="0 0 151 110" fill="none" xmlns="http://www.w3.org/2000/svg">
<path fill-rule="evenodd" clip-rule="evenodd" d="M59.3026 30L71.2455 42.814L63.2697 51.428L43.4361 30L63.2697 8.572L66.2459 11.786L70.2112 7.5L63.2697 0L35.5 30L63.2697 60L79.1362 42.858L63.2697 25.714L59.3026 30Z" fill="#2A9AA1"/>
<path fill-rule="evenodd" clip-rule="evenodd" d="M91.6974 30L79.7545 17.188L87.7303 8.572L107.562 30L87.7303 51.428L84.7541 48.214L80.787 52.5L87.7303 60L115.5 30L87.7303 0L71.8638 17.142L87.7303 34.286L91.6974 30Z" fill="#2A9AA1"/>
<path d="M14.5166 92.9834H18.5449C18.4375 94.4092 18.042 95.6738 17.3584 96.7773C16.6748 97.8711 15.7227 98.7305 14.502 99.3555C13.2812 99.9805 11.8018 100.293 10.0635 100.293C8.72559 100.293 7.51953 100.059 6.44531 99.5898C5.38086 99.1113 4.46777 98.4326 3.70605 97.5537C2.9541 96.665 2.37793 95.6006 1.97754 94.3604C1.57715 93.1104 1.37695 91.709 1.37695 90.1562V88.5303C1.37695 86.9775 1.58203 85.5762 1.99219 84.3262C2.40234 83.0762 2.98828 82.0117 3.75 81.1328C4.52148 80.2441 5.44434 79.5605 6.51855 79.082C7.60254 78.6035 8.81348 78.3643 10.1514 78.3643C11.8896 78.3643 13.3594 78.6865 14.5605 79.3311C15.7617 79.9658 16.6943 80.8398 17.3584 81.9531C18.0225 83.0664 18.4229 84.3457 18.5596 85.791H14.5312C14.4531 84.8926 14.2578 84.1309 13.9453 83.5059C13.6426 82.8809 13.1836 82.4072 12.5684 82.085C11.9629 81.7529 11.1572 81.5869 10.1514 81.5869C9.37012 81.5869 8.68164 81.7334 8.08594 82.0264C7.5 82.3193 7.01172 82.7588 6.62109 83.3447C6.23047 83.9209 5.9375 84.6436 5.74219 85.5127C5.54688 86.3721 5.44922 87.3682 5.44922 88.501V90.1562C5.44922 91.2402 5.53711 92.2119 5.71289 93.0713C5.88867 93.9307 6.16211 94.6582 6.5332 95.2539C6.9043 95.8496 7.38281 96.3037 7.96875 96.6162C8.55469 96.9287 9.25293 97.085 10.0635 97.085C11.0498 97.085 11.8506 96.9287 12.4658 96.6162C13.0908 96.3037 13.5645 95.8447 13.8867 95.2393C14.2188 94.6338 14.4287 93.8818 14.5166 92.9834ZM40.1355 88.7939V89.8926C40.1355 91.5039 39.9207 92.9541 39.491 94.2432C39.0613 95.5225 38.451 96.6113 37.66 97.5098C36.8689 98.4082 35.9266 99.0967 34.8328 99.5752C33.7391 100.054 32.5232 100.293 31.1854 100.293C29.867 100.293 28.6561 100.054 27.5525 99.5752C26.4588 99.0967 25.5115 98.4082 24.7107 97.5098C23.91 96.6113 23.2898 95.5225 22.8504 94.2432C22.4109 92.9541 22.1912 91.5039 22.1912 89.8926V88.7939C22.1912 87.1729 22.4109 85.7227 22.8504 84.4434C23.2898 83.1641 23.9051 82.0752 24.6961 81.1768C25.4871 80.2686 26.4295 79.5752 27.5232 79.0967C28.6268 78.6182 29.8377 78.3789 31.1561 78.3789C32.4939 78.3789 33.7098 78.6182 34.8035 79.0967C35.8973 79.5752 36.8396 80.2686 37.6307 81.1768C38.4314 82.0752 39.0467 83.1641 39.4764 84.4434C39.9158 85.7227 40.1355 87.1729 40.1355 88.7939ZM36.0633 89.8926V88.7646C36.0633 87.6025 35.9559 86.582 35.741 85.7031C35.5262 84.8145 35.2088 84.0674 34.7889 83.4619C34.3689 82.8564 33.8514 82.4023 33.2361 82.0996C32.6209 81.7871 31.9275 81.6309 31.1561 81.6309C30.3748 81.6309 29.6814 81.7871 29.076 82.0996C28.4803 82.4023 27.9725 82.8564 27.5525 83.4619C27.1326 84.0674 26.8104 84.8145 26.5857 85.7031C26.3709 86.582 26.2635 87.6025 26.2635 88.7646V89.8926C26.2635 91.0449 26.3709 92.0654 26.5857 92.9541C26.8104 93.8428 27.1326 94.5947 27.5525 95.21C27.9822 95.8154 28.4998 96.2744 29.1053 96.5869C29.7107 96.8994 30.4041 97.0557 31.1854 97.0557C31.9666 97.0557 32.66 96.8994 33.2654 96.5869C33.8709 96.2744 34.3787 95.8154 34.7889 95.21C35.2088 94.5947 35.5262 93.8428 35.741 92.9541C35.9559 92.0654 36.0633 91.0449 36.0633 89.8926ZM46.5064 78.6719H49.9928L55.8229 94.7266L61.6383 78.6719H65.1393L57.2145 100H54.4166L46.5064 78.6719ZM44.7486 78.6719H48.1617L48.777 93.4229V100H44.7486V78.6719ZM63.4693 78.6719H66.8971V100H62.8688V93.4229L63.4693 78.6719ZM80.4018 92.2217H74.9086V89.0576H80.4018C81.3002 89.0576 82.0277 88.9111 82.5844 88.6182C83.1508 88.3154 83.5658 87.9053 83.8295 87.3877C84.0932 86.8604 84.225 86.2598 84.225 85.5859C84.225 84.9316 84.0932 84.3213 83.8295 83.7549C83.5658 83.1885 83.1508 82.7295 82.5844 82.3779C82.0277 82.0264 81.3002 81.8506 80.4018 81.8506H76.227V100H72.1986V78.6719H80.4018C82.0619 78.6719 83.4779 78.9697 84.6498 79.5654C85.8314 80.1514 86.7299 80.9668 87.3451 82.0117C87.9701 83.0469 88.2826 84.2285 88.2826 85.5566C88.2826 86.9336 87.9701 88.1201 87.3451 89.1162C86.7299 90.1123 85.8314 90.8789 84.6498 91.416C83.4779 91.9531 82.0619 92.2217 80.4018 92.2217ZM98.8137 81.9092L92.7346 100H88.4719L96.4406 78.6719H99.1652L98.8137 81.9092ZM103.897 100L97.7883 81.9092L97.4221 78.6719H100.161L108.174 100H103.897ZM103.618 92.0752V95.2539H92.1779V92.0752H103.618ZM128.71 78.6719V100H124.667L115.6 85.2051V100H111.571V78.6719H115.6L124.696 93.4814V78.6719H128.71ZM136.092 78.6719L140.779 88.6182L145.496 78.6719H149.92L142.83 92.1924V100H138.743V92.1924L131.638 78.6719H136.092Z" fill="#2A9AA1"/>
</svg>
