<svg width="176" height="34" viewBox="0 0 176 34" fill="none" xmlns="http://www.w3.org/2000/svg">
<path d="M63.7812 21.5195H67.1992C67.0898 22.8229 66.7253 23.985 66.1055 25.0059C65.4857 26.0176 64.6152 26.8151 63.4941 27.3984C62.373 27.9818 61.0104 28.2734 59.4062 28.2734C58.1758 28.2734 57.0684 28.0547 56.084 27.6172C55.0996 27.1706 54.2565 26.5417 53.5547 25.7305C52.8529 24.9102 52.3151 23.9212 51.9414 22.7637C51.5768 21.6061 51.3945 20.3118 51.3945 18.8809V17.2266C51.3945 15.7956 51.5814 14.5013 51.9551 13.3438C52.3379 12.1862 52.8848 11.1973 53.5957 10.377C54.3066 9.54753 55.1589 8.91406 56.1523 8.47656C57.1549 8.03906 58.2806 7.82031 59.5293 7.82031C61.1152 7.82031 62.4551 8.11198 63.5488 8.69531C64.6426 9.27865 65.4902 10.0853 66.0918 11.1152C66.7025 12.1452 67.0762 13.3255 67.2129 14.6562H63.7949C63.7038 13.7995 63.5033 13.0658 63.1934 12.4551C62.8926 11.8444 62.446 11.3796 61.8535 11.0605C61.2611 10.7324 60.4863 10.5684 59.5293 10.5684C58.7454 10.5684 58.0618 10.7142 57.4785 11.0059C56.8952 11.2975 56.4076 11.7259 56.0156 12.291C55.6237 12.8561 55.3275 13.5534 55.127 14.3828C54.9355 15.2031 54.8398 16.1419 54.8398 17.1992V18.8809C54.8398 19.8835 54.9264 20.7949 55.0996 21.6152C55.2819 22.4264 55.5553 23.1237 55.9199 23.707C56.2936 24.2904 56.7676 24.7415 57.3418 25.0605C57.916 25.3796 58.6042 25.5391 59.4062 25.5391C60.3815 25.5391 61.1699 25.3841 61.7715 25.0742C62.3822 24.7643 62.8424 24.3132 63.1523 23.7207C63.4714 23.1191 63.681 22.3854 63.7812 21.5195ZM69.3594 20.7676V20.4531C69.3594 19.3867 69.5143 18.3978 69.8242 17.4863C70.1341 16.5658 70.5807 15.7682 71.1641 15.0938C71.7565 14.4102 72.4766 13.8815 73.3242 13.5078C74.181 13.125 75.1471 12.9336 76.2227 12.9336C77.3073 12.9336 78.2734 13.125 79.1211 13.5078C79.9779 13.8815 80.7025 14.4102 81.2949 15.0938C81.8874 15.7682 82.3385 16.5658 82.6484 17.4863C82.9583 18.3978 83.1133 19.3867 83.1133 20.4531V20.7676C83.1133 21.834 82.9583 22.8229 82.6484 23.7344C82.3385 24.6458 81.8874 25.4434 81.2949 26.127C80.7025 26.8014 79.9824 27.3301 79.1348 27.7129C78.2871 28.0866 77.3255 28.2734 76.25 28.2734C75.1654 28.2734 74.1947 28.0866 73.3379 27.7129C72.4902 27.3301 71.7702 26.8014 71.1777 26.127C70.5853 25.4434 70.1341 24.6458 69.8242 23.7344C69.5143 22.8229 69.3594 21.834 69.3594 20.7676ZM72.6543 20.4531V20.7676C72.6543 21.4329 72.7227 22.0618 72.8594 22.6543C72.9961 23.2467 73.2103 23.7663 73.502 24.2129C73.7936 24.6595 74.1673 25.0104 74.623 25.2656C75.0788 25.5208 75.6211 25.6484 76.25 25.6484C76.8607 25.6484 77.3893 25.5208 77.8359 25.2656C78.2917 25.0104 78.6654 24.6595 78.957 24.2129C79.2487 23.7663 79.4629 23.2467 79.5996 22.6543C79.7454 22.0618 79.8184 21.4329 79.8184 20.7676V20.4531C79.8184 19.7969 79.7454 19.1771 79.5996 18.5938C79.4629 18.0013 79.2441 17.4772 78.9434 17.0215C78.6517 16.5658 78.278 16.2103 77.8223 15.9551C77.3757 15.6908 76.8424 15.5586 76.2227 15.5586C75.6029 15.5586 75.0651 15.6908 74.6094 15.9551C74.1628 16.2103 73.7936 16.5658 73.502 17.0215C73.2103 17.4772 72.9961 18.0013 72.8594 18.5938C72.7227 19.1771 72.6543 19.7969 72.6543 20.4531ZM89.1699 16.2148V28H85.875V13.207H88.9785L89.1699 16.2148ZM88.6367 20.0566L87.5156 20.043C87.5156 19.0221 87.6432 18.0788 87.8984 17.2129C88.1536 16.347 88.5273 15.5951 89.0195 14.957C89.5117 14.3099 90.1224 13.8132 90.8516 13.4668C91.5898 13.1113 92.4421 12.9336 93.4082 12.9336C94.0827 12.9336 94.6979 13.0339 95.2539 13.2344C95.819 13.4258 96.3066 13.7311 96.7168 14.1504C97.1361 14.5697 97.4551 15.1074 97.6738 15.7637C97.9017 16.4199 98.0156 17.2129 98.0156 18.1426V28H94.7207V18.4297C94.7207 17.7096 94.6113 17.1445 94.3926 16.7344C94.1829 16.3242 93.8776 16.0326 93.4766 15.8594C93.0846 15.6771 92.6152 15.5859 92.0684 15.5859C91.4486 15.5859 90.9199 15.7044 90.4824 15.9414C90.054 16.1784 89.7031 16.502 89.4297 16.9121C89.1562 17.3223 88.9557 17.7962 88.8281 18.334C88.7005 18.8717 88.6367 19.446 88.6367 20.0566ZM97.8105 19.1816L96.2656 19.5234C96.2656 18.6302 96.3887 17.7871 96.6348 16.9941C96.89 16.1921 97.2591 15.4902 97.7422 14.8887C98.2344 14.278 98.8405 13.7995 99.5605 13.4531C100.281 13.1068 101.105 12.9336 102.035 12.9336C102.792 12.9336 103.466 13.0384 104.059 13.248C104.66 13.4486 105.171 13.7676 105.59 14.2051C106.009 14.6426 106.328 15.2122 106.547 15.9141C106.766 16.6068 106.875 17.4453 106.875 18.4297V28H103.566V18.416C103.566 17.6686 103.457 17.0898 103.238 16.6797C103.029 16.2695 102.728 15.987 102.336 15.832C101.944 15.668 101.475 15.5859 100.928 15.5859C100.417 15.5859 99.9661 15.6816 99.5742 15.873C99.1914 16.0553 98.8678 16.3151 98.6035 16.6523C98.3392 16.9805 98.1387 17.3587 98.002 17.7871C97.8743 18.2155 97.8105 18.6803 97.8105 19.1816ZM113.574 16.0508V33.6875H110.279V13.207H113.314L113.574 16.0508ZM123.213 20.4668V20.7539C123.213 21.8294 123.085 22.8275 122.83 23.748C122.584 24.6595 122.215 25.457 121.723 26.1406C121.24 26.8151 120.643 27.3392 119.932 27.7129C119.221 28.0866 118.4 28.2734 117.471 28.2734C116.55 28.2734 115.743 28.1048 115.051 27.7676C114.367 27.4212 113.788 26.9336 113.314 26.3047C112.84 25.6758 112.458 24.9375 112.166 24.0898C111.883 23.2331 111.683 22.2943 111.564 21.2734V20.166C111.683 19.0814 111.883 18.097 112.166 17.2129C112.458 16.3288 112.84 15.5677 113.314 14.9297C113.788 14.2917 114.367 13.7995 115.051 13.4531C115.734 13.1068 116.532 12.9336 117.443 12.9336C118.373 12.9336 119.198 13.1159 119.918 13.4805C120.638 13.8359 121.244 14.3464 121.736 15.0117C122.229 15.668 122.598 16.4609 122.844 17.3906C123.09 18.3112 123.213 19.3366 123.213 20.4668ZM119.918 20.7539V20.4668C119.918 19.7832 119.854 19.1497 119.727 18.5664C119.599 17.974 119.398 17.4544 119.125 17.0078C118.852 16.5612 118.501 16.2148 118.072 15.9688C117.653 15.7135 117.147 15.5859 116.555 15.5859C115.971 15.5859 115.47 15.6862 115.051 15.8867C114.632 16.0781 114.281 16.347 113.998 16.6934C113.715 17.0397 113.497 17.4453 113.342 17.9102C113.187 18.3659 113.077 18.8626 113.014 19.4004V22.0527C113.123 22.709 113.31 23.3105 113.574 23.8574C113.839 24.4043 114.212 24.8418 114.695 25.1699C115.188 25.4889 115.816 25.6484 116.582 25.6484C117.174 25.6484 117.68 25.5208 118.1 25.2656C118.519 25.0104 118.861 24.6595 119.125 24.2129C119.398 23.7572 119.599 23.2331 119.727 22.6406C119.854 22.0482 119.918 21.4193 119.918 20.7539ZM134.355 25.0332V17.9785C134.355 17.4499 134.26 16.9941 134.068 16.6113C133.877 16.2285 133.585 15.9323 133.193 15.7227C132.811 15.513 132.327 15.4082 131.744 15.4082C131.206 15.4082 130.742 15.4993 130.35 15.6816C129.958 15.8639 129.652 16.11 129.434 16.4199C129.215 16.7298 129.105 17.0807 129.105 17.4727H125.824C125.824 16.8893 125.965 16.3242 126.248 15.7773C126.531 15.2305 126.941 14.7428 127.479 14.3145C128.016 13.8861 128.659 13.5488 129.406 13.3027C130.154 13.0566 130.992 12.9336 131.922 12.9336C133.034 12.9336 134.018 13.1204 134.875 13.4941C135.741 13.8678 136.42 14.4329 136.912 15.1895C137.413 15.9368 137.664 16.8757 137.664 18.0059V24.582C137.664 25.2565 137.71 25.8626 137.801 26.4004C137.901 26.929 138.042 27.3893 138.225 27.7812V28H134.848C134.693 27.6445 134.57 27.1934 134.479 26.6465C134.396 26.0905 134.355 25.5527 134.355 25.0332ZM134.834 19.0039L134.861 21.041H132.496C131.885 21.041 131.348 21.1003 130.883 21.2188C130.418 21.3281 130.031 21.4922 129.721 21.7109C129.411 21.9297 129.178 22.194 129.023 22.5039C128.868 22.8138 128.791 23.1647 128.791 23.5566C128.791 23.9486 128.882 24.3086 129.064 24.6367C129.247 24.9557 129.511 25.2064 129.857 25.3887C130.213 25.571 130.641 25.6621 131.143 25.6621C131.817 25.6621 132.405 25.5254 132.906 25.252C133.417 24.9694 133.818 24.6276 134.109 24.2266C134.401 23.8164 134.556 23.429 134.574 23.0645L135.641 24.5273C135.531 24.901 135.344 25.3021 135.08 25.7305C134.816 26.1589 134.469 26.569 134.041 26.9609C133.622 27.3438 133.116 27.6582 132.523 27.9043C131.94 28.1504 131.266 28.2734 130.5 28.2734C129.534 28.2734 128.673 28.082 127.916 27.6992C127.16 27.3073 126.567 26.7832 126.139 26.127C125.71 25.4616 125.496 24.7096 125.496 23.8711C125.496 23.0872 125.642 22.3945 125.934 21.793C126.234 21.1823 126.672 20.6719 127.246 20.2617C127.829 19.8516 128.54 19.5417 129.379 19.332C130.217 19.1133 131.174 19.0039 132.25 19.0039H134.834ZM144.377 16.3652V28H141.082V13.207H144.186L144.377 16.3652ZM143.789 20.0566L142.723 20.043C142.732 18.9948 142.878 18.0332 143.16 17.1582C143.452 16.2832 143.853 15.5312 144.363 14.9023C144.883 14.2734 145.503 13.7904 146.223 13.4531C146.943 13.1068 147.745 12.9336 148.629 12.9336C149.34 12.9336 149.982 13.0339 150.557 13.2344C151.14 13.4258 151.637 13.7402 152.047 14.1777C152.466 14.6152 152.785 15.1849 153.004 15.8867C153.223 16.5794 153.332 17.4316 153.332 18.4434V28H150.023V18.4297C150.023 17.7188 149.919 17.1582 149.709 16.748C149.508 16.3288 149.212 16.0326 148.82 15.8594C148.438 15.6771 147.959 15.5859 147.385 15.5859C146.82 15.5859 146.314 15.7044 145.867 15.9414C145.421 16.1784 145.042 16.502 144.732 16.9121C144.432 17.3223 144.199 17.7962 144.035 18.334C143.871 18.8717 143.789 19.446 143.789 20.0566ZM160.988 26.3867L165.008 13.207H168.535L162.602 30.2559C162.465 30.6204 162.287 31.0169 162.068 31.4453C161.85 31.8737 161.562 32.2793 161.207 32.6621C160.861 33.054 160.428 33.3685 159.908 33.6055C159.389 33.8516 158.76 33.9746 158.021 33.9746C157.73 33.9746 157.447 33.9473 157.174 33.8926C156.91 33.847 156.659 33.7969 156.422 33.7422L156.408 31.2266C156.499 31.2357 156.609 31.2448 156.736 31.2539C156.873 31.263 156.982 31.2676 157.064 31.2676C157.611 31.2676 158.067 31.1992 158.432 31.0625C158.796 30.9349 159.092 30.7253 159.32 30.4336C159.557 30.1419 159.758 29.75 159.922 29.2578L160.988 26.3867ZM158.719 13.207L162.232 24.2812L162.82 27.7539L160.537 28.3418L155.164 13.207H158.719Z" fill="white"/>
<path fill-rule="evenodd" clip-rule="evenodd" d="M13.0914 16.5L19.66 23.5477L15.2733 28.2854L4.36485 16.5L15.2733 4.7146L16.9103 6.4823L19.0911 4.125L15.2733 0L0 16.5L15.2733 33L23.9999 23.5719L15.2733 14.1427L13.0914 16.5Z" fill="white"/>
<path fill-rule="evenodd" clip-rule="evenodd" d="M30.9086 16.5L24.34 9.4534L28.7267 4.7146L39.6341 16.5L28.7267 28.2854L27.0897 26.5177L24.9078 28.875L28.7267 33L44 16.5L28.7267 0L20.0001 9.4281L28.7267 18.8573L30.9086 16.5Z" fill="white"/>
</svg>
